<svg width="179" height="20" viewBox="0 0 179 20" fill="none" xmlns="http://www.w3.org/2000/svg">
<path d="M4.04494 7.98122H13.1935V11.4018H4.04494V7.98122ZM4.37071 15.7996H14.7138V19.3287H1.08072e-05V0.325716H14.3609V3.85485H4.37071V15.7996ZM24.4569 19.6545C22.9366 19.6545 21.4797 19.4554 20.0862 19.0573C18.6926 18.641 17.5705 18.1071 16.7199 17.4556L18.213 14.1436C19.0274 14.7228 19.9866 15.2024 21.0906 15.5824C22.2127 15.9444 23.3438 16.1254 24.484 16.1254C25.3527 16.1254 26.0495 16.0439 26.5743 15.881C27.1173 15.7001 27.5154 15.4557 27.7688 15.1481C28.0222 14.8404 28.1489 14.4875 28.1489 14.0893C28.1489 13.5826 27.9498 13.1844 27.5516 12.8949C27.1535 12.5872 26.6286 12.3429 25.9771 12.1619C25.3256 11.9628 24.6016 11.7818 23.8053 11.6189C23.0271 11.438 22.2398 11.2208 21.4435 10.9674C20.6653 10.714 19.9504 10.3883 19.2989 9.99011C18.6474 9.59195 18.1135 9.0671 17.6972 8.41557C17.299 7.76404 17.1 6.93153 17.1 5.91803C17.1 4.83215 17.3895 3.8458 17.9687 2.95899C18.5659 2.05409 19.4527 1.33921 20.6291 0.814365C21.8236 0.271422 23.3167 -4.93936e-05 25.1084 -4.93936e-05C26.3029 -4.93936e-05 27.4792 0.144735 28.6375 0.434305C29.7958 0.705776 30.8183 1.12203 31.7051 1.68307L30.3478 5.02218C29.461 4.51543 28.5742 4.14442 27.6874 3.90914C26.8006 3.65577 25.9318 3.52908 25.0812 3.52908C24.2306 3.52908 23.5338 3.62862 22.9909 3.8277C22.448 4.02678 22.0589 4.2892 21.8236 4.61497C21.5883 4.92264 21.4707 5.2846 21.4707 5.70086C21.4707 6.1895 21.6697 6.58766 22.0679 6.89533C22.4661 7.1849 22.9909 7.42018 23.6424 7.60116C24.294 7.78214 25.0088 7.96312 25.7871 8.1441C26.5834 8.32508 27.3706 8.53321 28.1489 8.76849C28.9452 9.00376 29.6691 9.32048 30.3206 9.71864C30.9722 10.1168 31.497 10.6416 31.8952 11.2932C32.3114 11.9447 32.5196 12.7682 32.5196 13.7636C32.5196 14.8314 32.2209 15.8087 31.6237 16.6955C31.0265 17.5823 30.1306 18.2971 28.9361 18.8401C27.7598 19.383 26.2667 19.6545 24.4569 19.6545ZM39.1959 19.3287V3.90914H33.1149V0.325716H49.6747V3.90914H43.5937V19.3287H39.1959ZM60.1656 19.6545C57.4689 19.6545 55.3605 18.9034 53.8403 17.4013C52.32 15.8991 51.5599 13.7545 51.5599 10.9674V0.325716H55.9577V10.8045C55.9577 12.6143 56.3288 13.9174 57.0708 14.7137C57.8128 15.51 58.8534 15.9082 60.1927 15.9082C61.532 15.9082 62.5726 15.51 63.3146 14.7137C64.0567 13.9174 64.4277 12.6143 64.4277 10.8045V0.325716H68.7712V10.9674C68.7712 13.7545 68.0111 15.8991 66.4908 17.4013C64.9706 18.9034 62.8622 19.6545 60.1656 19.6545ZM73.1171 19.3287V0.325716H81.7499C83.8131 0.325716 85.6319 0.723874 87.2065 1.52019C88.781 2.29841 90.0117 3.39335 90.8985 4.805C91.7853 6.21665 92.2287 7.89073 92.2287 9.82723C92.2287 11.7456 91.7853 13.4197 90.8985 14.8495C90.0117 16.2611 88.781 17.3651 87.2065 18.1614C85.6319 18.9396 83.8131 19.3287 81.7499 19.3287H73.1171ZM77.5149 15.7182H81.5327C82.7996 15.7182 83.8945 15.4829 84.8175 15.0123C85.7586 14.5237 86.4825 13.836 86.9893 12.9492C87.5141 12.0623 87.7766 11.0217 87.7766 9.82723C87.7766 8.61465 87.5141 7.57401 86.9893 6.7053C86.4825 5.81849 85.7586 5.13981 84.8175 4.66926C83.8945 4.18061 82.7996 3.93629 81.5327 3.93629H77.5149V15.7182ZM95.5453 19.3287V0.325716H99.9432V19.3287H95.5453ZM101.955 19.3287L110.425 0.325716H114.769L123.266 19.3287H118.651L111.701 2.55178H113.439L106.462 19.3287H101.955ZM106.19 15.2567L107.358 11.9176H117.131L118.325 15.2567H106.19ZM125.238 19.3287V0.325716H128.875L140.087 14.0079H138.322V0.325716H142.666V19.3287H139.055L127.817 5.64656H129.581V19.3287H125.238ZM151.098 19.3287V3.90914H145.017V0.325716H161.577V3.90914H155.496V19.3287H151.098ZM167.988 7.98122H177.137V11.4018H167.988V7.98122ZM168.314 15.7996H178.657V19.3287H163.943V0.325716H178.304V3.85485H168.314V15.7996Z" fill="#009EF7"/>
</svg>
